<?xml version="1.0" encoding="UTF-8"?>
<svg viewBox="0 0 18 13" version="1.1" xmlns="http://www.w3.org/2000/svg" xmlns:xlink="http://www.w3.org/1999/xlink">
    <!-- Generator: Sketch 44 (41411) - http://www.bohemiancoding.com/sketch -->
    <title>social/twitter</title>
    <desc>Created with Sketch.</desc>
    <defs></defs>
    <g id="Symbols" stroke="none" stroke-width="1" fill="none" fill-rule="evenodd">
        <g id="social/twitter" fill="#B3B2B2">
            <g id="twitter" transform="translate(3.000000, 1.000000)">
                <g id="Layer_2">
                    <g>
                        <g id="Layer_2-2">
                            <path d="M13,1.16251334 C12.5136369,1.36484856 11.9984883,1.49793661 11.4712,1.55747712 C12.0242375,1.24263364 12.4381277,0.747924253 12.636,0.165229772 C12.1120547,0.460009815 11.5386393,0.667089445 10.9408,0.777423643 C10.1100492,-0.0415805435 8.80689659,-0.235949239 7.75165961,0.301754828 C6.69642262,0.839458894 6.14672009,1.97796408 6.4064,3.0879618 C4.26008856,2.98712717 2.26001907,2.02509819 0.9048,0.441704424 C0.200307287,1.59727803 0.559467786,3.07349954 1.7264,3.81864481 C1.30359643,3.80544776 0.890130326,3.69715589 0.52,3.50267378 L0.52,3.50267378 C0.500295367,4.72295247 1.40170268,5.78234764 2.6624,6.02056793 C2.4320606,6.08077639 2.19410587,6.11067781 1.9552,6.10943478 C1.78917014,6.12433708 1.62202986,6.12433708 1.456,6.10943478 C1.82214725,7.12385649 2.82259344,7.80854422 3.952,7.81765316 C3.00094498,8.50970703 1.83256644,8.87831328 0.6344,8.8643072 C0.423118363,8.87618499 0.211281637,8.87618499 0,8.8643072 C1.21942074,9.60731308 2.63826451,10.0015015 4.0872,9.99982809 C6.10221389,10.0130865 8.03874783,9.25896359 9.46361203,7.90615166 C10.8884762,6.55333973 11.6827646,4.71473209 11.6688,2.80161306 L11.6688,2.47576793 C12.1913247,2.11673231 12.642132,1.67200218 13,1.16251334" id="Shape"></path>
                        </g>
                    </g>
                </g>
            </g>
        </g>
    </g>
</svg>